<svg width="24" height="25" viewBox="0 0 24 25" fill="none" xmlns="http://www.w3.org/2000/svg">
<path d="M21.25 9.19009C18.94 5.56009 15.56 3.47009 12 3.47009C10.22 3.47009 8.49 3.99009 6.91 4.96009C5.33 5.94009 3.91 7.37009 2.75 9.19009C1.75 10.7601 1.75 13.3101 2.75 14.8801C5.06 18.5201 8.44 20.6001 12 20.6001C13.78 20.6001 15.51 20.0801 17.09 19.1101C18.67 18.1301 20.09 16.7001 21.25 14.8801C22.25 13.3201 22.25 10.7601 21.25 9.19009ZM12 16.0801C9.76 16.0801 7.96 14.2701 7.96 12.0401C7.96 9.81009 9.76 8.00009 12 8.00009C14.24 8.00009 16.04 9.81009 16.04 12.0401C16.04 14.2701 14.24 16.0801 12 16.0801Z" fill="#171717"/>
<path d="M12 9.18005C10.43 9.18005 9.15002 10.4601 9.15002 12.0401C9.15002 13.6101 10.43 14.8901 12 14.8901C13.57 14.8901 14.86 13.6101 14.86 12.0401C14.86 10.4701 13.57 9.18005 12 9.18005Z" fill="#171717"/>
</svg>
